<?xml version="1.0" encoding="UTF-8" standalone="no"?>
<!-- Created with Inkscape (http://www.inkscape.org/) -->

<svg
   xmlns:dc="http://purl.org/dc/elements/1.1/"
   xmlns:cc="http://creativecommons.org/ns#"
   xmlns:rdf="http://www.w3.org/1999/02/22-rdf-syntax-ns#"
   xmlns:svg="http://www.w3.org/2000/svg"
   xmlns="http://www.w3.org/2000/svg"
   xmlns:sodipodi="http://sodipodi.sourceforge.net/DTD/sodipodi-0.dtd"
   xmlns:inkscape="http://www.inkscape.org/namespaces/inkscape"
   width="210mm"
   height="297mm"
   viewBox="0 0 210 297"
   version="1.1"
   id="svg8"
   inkscape:version="0.92.1 r15371"
   sodipodi:docname="fullpath.svg">
  <defs
     id="defs2" />
  <sodipodi:namedview
     id="base"
     pagecolor="#ffffff"
     bordercolor="#666666"
     borderopacity="1.0"
     inkscape:pageopacity="0.0"
     inkscape:pageshadow="2"
     inkscape:zoom="2.8"
     inkscape:cx="326.30321"
     inkscape:cy="996.09339"
     inkscape:document-units="mm"
     inkscape:current-layer="svg8"
     showgrid="false"
     showguides="false"
     inkscape:window-width="1920"
     inkscape:window-height="1001"
     inkscape:window-x="-9"
     inkscape:window-y="-9"
     inkscape:window-maximized="1" />
  <metadata
     id="metadata5">
    <rdf:RDF>
      <cc:Work
         rdf:about="">
        <dc:format>image/svg+xml</dc:format>
        <dc:type
           rdf:resource="http://purl.org/dc/dcmitype/StillImage" />
        <dc:title></dc:title>
      </cc:Work>
    </rdf:RDF>
  </metadata>
  <g
     inkscape:label="Calque 1"
     inkscape:groupmode="layer"
     id="layer1">
    <rect
       id="rect815"
       width="30"
       height="30"
       x="33.261906"
       y="79.814911"
       style="fill:#808080;fill-opacity:1;stroke-width:0.26458332" />
    <rect
       id="rect815-2"
       width="30.000002"
       height="30.000002"
       x="33.261906"
       y="49.814907"
       style="fill:#808080;fill-opacity:1;stroke-width:0.26458332" />
    <path
       style="fill:#f3a700;fill-opacity:0.75;stroke:#000000;stroke-width:0.26278377px;stroke-linecap:butt;stroke-linejoin:miter;stroke-opacity:1"
       d="M 41.694041,49.947601 C 40.558148,56.604668 42.02813,67.20717 42.02813,67.20717 l 1.336347,3.097845 -0.334087,4.481983 -1.202713,3.55922 -0.06682,1.32569 10.557144,-0.007 0.734992,-7.448001 -1.603615,-6.063865 3.54132,-7.184361 -2.639286,-9.025153 z"
       id="path821-8"
       inkscape:connector-curvature="0"
       sodipodi:nodetypes="cccccccccccc" />
    <rect
       id="rect815-2-7"
       width="30.000002"
       height="30.000002"
       x="33.278999"
       y="19.841469"
       style="fill:#808080;fill-opacity:1;stroke-width:0.26458332" />
    <path
       style="fill:#f3a700;fill-opacity:0.75;stroke:#000000;stroke-width:0.26278377px;stroke-linecap:butt;stroke-linejoin:miter;stroke-opacity:1"
       d="M 63.110687,27.56138 C 59.252012,25.885083 49.181395,23.73599 42.295305,36.477797 l 1.052864,3.853797 -0.334086,4.481983 -1.202713,3.559219 -0.06682,1.32569 10.557143,-0.007 0.734993,-7.448015 3.733091,-2.664894 v 0 l 6.298508,1.213614 z"
       id="path821-8-6"
       inkscape:connector-curvature="0"
       sodipodi:nodetypes="cccccccccccc" />
    <rect
       id="rect815-2-1"
       width="30.000002"
       height="30.000002"
       x="-49.841473"
       y="63.278999"
       style="fill:#808080;fill-opacity:1;stroke-width:0.26458332"
       transform="rotate(-90)" />
    <path
       style="fill:#f3a700;fill-opacity:0.75;stroke:#000000;stroke-width:0.26278377px;stroke-linecap:butt;stroke-linejoin:miter;stroke-opacity:1"
       d="m 63.283988,40.785312 c 6.657067,1.135893 17.25957,-0.334089 17.25957,-0.334089 l 3.097845,-1.336346 4.481983,0.334086 3.559219,1.202713 1.459325,0.167046 0.02011,-13.15011 -3.451026,1.09629 -4.504713,-0.333513 C 75.249497,25.47165 74.69984,28.669096 72.305053,27.488656 l -8.893688,0.139541 z"
       id="path821-8-0"
       inkscape:connector-curvature="0"
       sodipodi:nodetypes="cccccccccccc" />
    <rect
       id="rect815-2-1-7"
       width="30.000002"
       height="30.000002"
       x="-49.830971"
       y="93.080963"
       style="fill:#808080;fill-opacity:1;stroke-width:0.26458332"
       transform="rotate(-90)" />
    <path
       style="fill:#f3a700;fill-opacity:0.75;stroke:#000000;stroke-width:0.26278377px;stroke-linecap:butt;stroke-linejoin:miter;stroke-opacity:1"
       d="m 93.085947,40.77482 c 6.657071,1.135893 17.259613,-0.334088 17.259613,-0.334088 l 3.09784,-1.336347 4.48199,0.334086 3.55922,1.202713 1.45932,0.167046 0.0201,-13.15011 -3.45102,1.09629 -4.50472,-0.333513 c -9.95681,-2.959739 -10.50647,0.237707 -12.90127,-0.942733 l -8.893696,0.139541 z"
       id="path821-8-0-3"
       inkscape:connector-curvature="0"
       sodipodi:nodetypes="cccccccccccc" />
    <rect
       id="rect815-2-7-6"
       width="30.000002"
       height="30.000002"
       x="-153.09407"
       y="19.862083"
       style="fill:#808080;fill-opacity:1;stroke-width:0.26458332"
       transform="scale(-1,1)" />
    <path
       style="fill:#f3a700;fill-opacity:0.75;stroke:#000000;stroke-width:0.26278377px;stroke-linecap:butt;stroke-linejoin:miter;stroke-opacity:1"
       d="m 122.96151,27.648785 c 3.85867,-1.6763 14.22997,-3.89221 21.11606,8.8496 l -1.05287,3.85379 0.33409,4.48199 1.20271,3.55922 -2.38764,1.354835 -10.70464,0.0041 1.86695,-7.488253 -3.7331,-2.66489 v 0 l -6.43214,1.1802 z"
       id="path821-8-6-2"
       inkscape:connector-curvature="0"
       sodipodi:nodetypes="cccccccccccc" />
    <rect
       id="rect815-2-8"
       width="30.000002"
       height="30.000002"
       x="123.0369"
       y="49.749878"
       style="fill:#808080;fill-opacity:1;stroke-width:0.26458332" />
    <path
       style="fill:#f3a700;fill-opacity:0.75;stroke:#000000;stroke-width:0.26278377px;stroke-linecap:butt;stroke-linejoin:miter;stroke-opacity:1"
       d="m 131.46922,49.882586 c -1.1359,6.657067 0.33409,17.259569 0.33409,17.259569 l 1.33634,3.097848 -0.33409,4.481956 -1.20271,3.559199 -0.0668,1.325681 10.55715,-0.007 0.73499,-7.447978 -1.60362,-6.063849 3.54132,-7.184361 -2.63928,-9.025153 z"
       id="path821-8-3"
       inkscape:connector-curvature="0"
       sodipodi:nodetypes="cccccccccccc" />
    <rect
       id="rect815-2-7-6-1"
       width="30.000002"
       height="30.000002"
       x="-109.72904"
       y="-153.03647"
       style="fill:#808080;fill-opacity:1;stroke-width:0.26458332"
       transform="matrix(0,-1,-1,0,0,0)" />
    <path
       style="fill:#f3a700;fill-opacity:0.75;stroke:#000000;stroke-width:0.26278377px;stroke-linecap:butt;stroke-linejoin:miter;stroke-opacity:1"
       d="m 142.0932,79.599839 c 1.6763,3.85867 6.97426,14.398916 -5.76755,21.285231 l -3.8538,-1.05288 -4.48201,0.3341 -3.55924,1.20271 -1.51499,-0.67091 0.0201,-13.150129 7.62434,2.595434 2.6649,-3.7331 v 0 l -1.6889,-6.803456 z"
       id="path821-8-6-2-6"
       inkscape:connector-curvature="0"
       sodipodi:nodetypes="cccccccccccc" />
    <rect
       id="rect815-2-1-0"
       width="30.000002"
       height="30.000002"
       x="-109.73132"
       y="63.250893"
       style="fill:#808080;fill-opacity:1;stroke-width:0.26458332"
       transform="rotate(-90)" />
    <path
       style="fill:#f3a700;fill-opacity:0.75;stroke:#000000;stroke-width:0.26278377px;stroke-linecap:butt;stroke-linejoin:miter;stroke-opacity:1"
       d="m 63.255889,100.67517 c 6.657035,1.13591 17.259475,-0.33408 17.259475,-0.33408 l 3.097822,-1.336372 4.481966,0.334084 3.559199,1.202738 1.459311,0.16704 0.0201,-13.150127 -3.450999,1.09629 -4.504696,-0.333513 c -9.956743,-2.959739 -10.5064,0.237707 -12.901175,-0.942733 l -8.893636,0.139541 z"
       id="path821-8-0-37"
       inkscape:connector-curvature="0"
       sodipodi:nodetypes="cccccccccccc" />
    <rect
       id="rect815-2-1-7-1"
       width="30.000002"
       height="30.000002"
       x="-109.72083"
       y="93.052895"
       style="fill:#808080;fill-opacity:1;stroke-width:0.26458332"
       transform="rotate(-90)" />
    <path
       style="fill:#f3a700;fill-opacity:0.75;stroke:#000000;stroke-width:0.26278377px;stroke-linecap:butt;stroke-linejoin:miter;stroke-opacity:1"
       d="m 93.057685,100.66468 c 6.657029,1.1359 17.259555,-0.33409 17.259555,-0.33409 l 3.09784,-1.336364 4.48199,0.334088 3.55922,1.202736 1.45932,0.16704 0.0201,-13.150129 -3.45102,1.09629 -4.50472,-0.333513 c -9.95681,-2.959739 -10.50647,0.237707 -12.90127,-0.942733 l -8.893648,0.139541 z"
       id="path821-8-0-3-1"
       inkscape:connector-curvature="0"
       sodipodi:nodetypes="cccccccccccc" />
    <path
       style="fill:#f3a700;fill-opacity:0.75;stroke:#000000;stroke-width:0.26278377px;stroke-linecap:butt;stroke-linejoin:miter;stroke-opacity:1"
       d="m 63.255889,100.67517 c -3.858675,1.67629 -14.020525,5.10832 -20.906615,-7.633417 l 1.052864,-3.853795 -0.334086,-4.48199 -1.202713,-3.55921 -0.06682,-1.198123 10.557143,0.007 0.734993,7.320443 3.733091,2.664895 v 0 l 6.55951,-2.422935 z"
       id="path821-8-6-5"
       inkscape:connector-curvature="0"
       sodipodi:nodetypes="cccccccccccc" />
  </g>
</svg>
